<?xml version="1.0" standalone="no"?>
<!DOCTYPE svg PUBLIC "-//W3C//DTD SVG 20010904//EN"
 "http://www.w3.org/TR/2001/REC-SVG-20010904/DTD/svg10.dtd">
<svg version="1.0" xmlns="http://www.w3.org/2000/svg"
 width="340.000000pt" height="261.000000pt" viewBox="0 0 340.000000 261.000000"
 preserveAspectRatio="xMidYMid meet">
<metadata>
Created by potrace 1.16, written by Peter Selinger 2001-2019
</metadata>
<g transform="translate(0.000000,261.000000) scale(0.100000,-0.100000)"
fill="#000000" stroke="none">
<path d="M0 1305 l0 -1305 1700 0 1700 0 0 1305 0 1305 -1700 0 -1700 0 0
-1305z m902 998 c40 -45 193 -382 180 -395 -5 -5 -62 -7 -128 -6 l-119 3 -66
185 c-51 141 -64 188 -56 197 14 13 87 30 138 32 23 1 42 -5 51 -16z m769
-110 c18 -11 27 -23 24 -33 -3 -8 -7 -40 -10 -70 -3 -30 -10 -59 -15 -64 -6
-6 -10 -25 -10 -43 0 -18 -4 -33 -10 -33 -5 0 -10 -4 -10 -10 0 -5 7 -10 15
-10 11 0 15 -10 14 -32 -1 -25 -3 -27 -6 -10 -4 19 -7 21 -19 11 -8 -6 -14 -7
-14 -2 0 5 -12 9 -27 9 -25 -1 -28 2 -26 29 6 88 17 153 30 178 7 15 11 32 8
37 -3 6 -1 10 5 10 6 0 9 4 6 9 -6 10 3 41 11 41 3 0 18 -8 34 -17z m-51 -374
c55 -12 55 -10 65 -114 8 -79 49 -219 91 -312 19 -42 33 -78 31 -80 -10 -10
-272 -52 -279 -45 -13 13 12 546 25 554 15 9 7 10 67 -3z m195 -56 c24 -11 25
-13 5 -8 -14 4 -36 9 -50 11 -24 5 -24 5 -6 -10 11 -9 33 -16 49 -16 16 0 26
-4 22 -10 -3 -5 -4 -10 -1 -10 2 0 12 -3 22 -7 12 -4 15 -3 10 5 -5 8 -2 10 8
6 17 -7 21 -20 9 -27 -5 -2 -2 -2 5 -1 7 2 23 -1 37 -6 15 -6 25 -6 25 0 0 14
38 22 56 12 15 -8 15 -10 0 -15 -10 -4 -15 -3 -11 3 3 6 -1 10 -11 10 -13 0
-14 -3 -4 -15 7 -8 16 -12 22 -9 5 3 14 1 21 -4 7 -5 41 -18 75 -28 38 -11 68
-27 74 -38 8 -14 7 -17 -4 -10 -8 4 -6 0 3 -12 17 -19 25 -56 34 -153 3 -30 8
-58 11 -62 3 -5 3 -17 0 -27 -5 -14 -18 -17 -88 -15 -46 0 -121 2 -168 2 -61
1 -81 4 -70 12 13 8 12 9 -3 7 -11 -2 -24 8 -35 27 -9 17 -18 32 -19 34 -2 2
-6 1 -9 -2 -4 -4 5 -25 20 -47 25 -38 29 -40 79 -42 45 -1 47 -2 13 -5 -69 -7
-83 1 -122 78 -34 68 -35 72 -19 96 10 14 12 23 7 19 -15 -9 -33 28 -25 51 5
14 3 16 -7 6 -10 -9 -10 -19 -1 -44 6 -18 9 -34 7 -36 -2 -2 -11 17 -20 43 -9
26 -14 50 -11 52 3 3 5 -1 5 -9 0 -12 2 -12 9 0 6 10 5 23 -1 35 -7 12 -12 32
-13 46 -1 14 -6 33 -10 43 -4 10 -3 34 3 52 7 25 7 35 -2 39 -6 3 3 2 19 -1
17 -3 44 -13 60 -20z m675 -620 l140 -66 0 -113 c0 -135 -5 -144 -84 -144 -31
0 -58 5 -64 13 -16 19 -142 346 -142 368 0 14 1 14 150 -58z m-980 -83 c25
-117 45 -194 56 -224 3 -8 -15 -16 -59 -24 -92 -17 -96 -16 -112 22 -36 86
-97 308 -87 318 13 13 118 37 151 35 23 -2 26 -10 51 -127z"/>
</g>
</svg>
